<?xml version="1.0" encoding="utf-8"?>
<!-- Generator: Adobe Illustrator 18.1.1, SVG Export Plug-In . SVG Version: 6.00 Build 0)  -->
<!DOCTYPE svg PUBLIC "-//W3C//DTD SVG 1.1//EN" "http://www.w3.org/Graphics/SVG/1.1/DTD/svg11.dtd">
<svg version="1.1" id="Layer_1" xmlns="http://www.w3.org/2000/svg" xmlns:xlink="http://www.w3.org/1999/xlink" x="0px" y="0px"
	 viewBox="0 0 154 164" enable-background="new 0 0 154 164" xml:space="preserve">
<path fill="#FFFFFF" d="M16.1,149.4v-16.3h3.6v16.3H16.1z"/>
<path fill="#FFFFFF" d="M41,149.4l-7.9-10.4v10.4h-3.5v-16.3h3.3l7.7,10.1v-10.1h3.5v16.3H41z"/>
<path fill="#FFFFFF" d="M59.4,140.4c3.8,0.8,5.5,2.1,5.5,4.6c0,2.8-2.4,4.6-5.8,4.6c-2.7,0-4.9-0.9-6.9-2.6l1.2-1.4
	c1.8,1.5,3.5,2.3,5.8,2.3c2.3,0,3.8-1.1,3.8-2.8c0-1.5-0.8-2.4-4.4-3.1c-3.9-0.8-5.7-2-5.7-4.7c0-2.6,2.3-4.5,5.5-4.5
	c2.5,0,4.2,0.7,5.9,2l-1.1,1.4c-1.6-1.2-3.1-1.8-4.9-1.8c-2.2,0-3.6,1.2-3.6,2.7C54.8,138.7,55.7,139.6,59.4,140.4z"/>
<path fill="#FFFFFF" d="M74.9,133.1v16.3h-1.8v-16.3H74.9z"/>
<path fill="#FFFFFF" d="M88.9,149.4h-5.7v-16.3h5.7c5.1,0,8.7,3.5,8.7,8.1C97.6,145.9,94.1,149.4,88.9,149.4z M88.9,134.8h-3.8v12.9
	h3.8c4.1,0,6.8-2.8,6.8-6.4C95.7,137.6,93.1,134.8,88.9,134.8z"/>
<path fill="#FFFFFF" d="M117.2,134.8h-10v5.6h8.9v1.7h-8.9v5.7h10.1v1.7h-11.9v-16.3h11.8V134.8z"/>
<path fill="#FFFFFF" d="M135.6,149.4l-4.7-6.3h-4.7v6.3h-1.8v-16.3h7c3.6,0,5.9,1.9,5.9,4.9c0,2.7-1.9,4.3-4.4,4.8l5,6.7H135.6z
	 M131.2,134.8h-5v6.6h5c2.4,0,4.2-1.3,4.2-3.4C135.4,136,133.9,134.8,131.2,134.8z"/>
<path fill="#FFFFFF" d="M44,83.8V40.5h9.5v43.3H44z"/>
<path fill="#FFFFFF" d="M101.8,83.8l-21-27.5v27.5h-9.4V40.5h8.8l20.3,26.7V40.5h9.4v43.3H101.8z"/>
<path fill="#FFFFFF" d="M16.3,14.3v93.9l31.9,0c15.9,0,22.5,13.6,22.8,15.2h5.6c0.1-1.1,7-15.2,22.1-15.2l38.9,0V14.3H16.3z
	 M132,102.6l-33.8,0c-13.3,0-21.5,7.7-24.5,12.8c-3.2-5.1-12.8-12.8-23.9-12.8l0,0c-1.1-0.2-28-0.1-28-0.1V20H132V102.6z"/>
</svg>
